HIERARCHY
ROOT hip
{
	OFFSET 0.000000 0.000000 0.000000 
	CHANNELS 6 Xposition Yposition Zposition Xrotation Zrotation Yrotation
	JOINT abdomen
	{
		OFFSET 0.000000 3.402643 0.000000 
		CHANNELS 3 Xrotation Zrotation Yrotation
		JOINT chest
		{
			OFFSET 0.000000 8.438565 -0.680529 
			CHANNELS 3 Xrotation Zrotation Yrotation
			JOINT neck
			{
				OFFSET 0.000000 10.207942 -0.272212 
				CHANNELS 3 Xrotation Zrotation Yrotation
				JOINT head
				{
					OFFSET 0.000000 3.130431 0.000000 
					CHANNELS 3 Xrotation Zrotation Yrotation
					End Site
					{
						OFFSET 0.000000 3.130435 0.000000 
					}
				}
			}
			JOINT lCollar
			{
				OFFSET 3.470700 6.669187 -0.816635 
				CHANNELS 3 Yrotation Zrotation Xrotation
				JOINT lShldr
				{
					OFFSET 3.198488 0.000000 0.000000 
					CHANNELS 3 Zrotation Yrotation Xrotation
					JOINT lForeArm
					{
						OFFSET 10.139888 0.000000 0.000000 
						CHANNELS 3 Yrotation Zrotation Xrotation
						JOINT lHand
						{
							OFFSET 8.370511 0.000000 0.000000 
							CHANNELS 3 Zrotation Yrotation Xrotation
							End Site
							{
								OFFSET 4.083176 0.000000 0.000000 
							}
						}
					}
				}
			}
			JOINT rCollar
			{
				OFFSET -3.470700 6.669187 -0.816635 
				CHANNELS 3 Yrotation Zrotation Xrotation
				JOINT rShldr
				{
					OFFSET -3.198488 0.000000 0.000000 
					CHANNELS 3 Zrotation Yrotation Xrotation
					JOINT rForeArm
					{
						OFFSET -10.139888 0.000000 0.000000 
						CHANNELS 3 Yrotation Zrotation Xrotation
						JOINT rHand
						{
							OFFSET -8.370511 0.000000 0.000000 
							CHANNELS 3 Zrotation Yrotation Xrotation
							End Site
							{
								OFFSET -4.083176 0.000000 0.000000 
							}
						}
					}
				}
			}
		}
	}
	JOINT lThigh
	{
		OFFSET 5.308129 -1.633274 1.361059 
		CHANNELS 3 Xrotation Zrotation Yrotation
		JOINT lShin
		{
			OFFSET -2.041588 -20.007561 0.000000 
			CHANNELS 3 Xrotation Zrotation Yrotation
			JOINT lFoot
			{
				OFFSET 0.000000 -19.190928 -1.224953 
				CHANNELS 3 Xrotation Yrotation Zrotation
				End Site
				{
					OFFSET 0.000000 -2.449906 4.627600 
				}
			}
		}
	}
	JOINT rThigh
	{
		OFFSET -5.308129 -1.633274 1.361059 
		CHANNELS 3 Xrotation Zrotation Yrotation
		JOINT rShin
		{
			OFFSET 2.041588 -20.007561 0.000000 
			CHANNELS 3 Xrotation Zrotation Yrotation
			JOINT rFoot
			{
				OFFSET 0.000000 -19.190928 -1.224953 
				CHANNELS 3 Xrotation Yrotation Zrotation
				End Site
				{
					OFFSET 0.000000 -2.449906 4.627600 
				}
			}
		}
	}
}
MOTION
Frames: 6
Frame Time: 0.033333
10.451793 45.338333 -0.557989 3.261719 -8.593750 91.347618 21.906429 -14.070478 -2.834655 -9.443359 0.839844 9.355613 54.666695 4.861522 0.013473 -38.974613 0.146484 15.693367 2.000000 -2.000000 0.000000 -14.023438 22.861330 5.371094 -51.675159 28.972652 -38.459270 15.556364 -30.316256 -13.265417 -2.000000 2.000000 0.000000 -13.496094 -10.351563 97.498245 -18.452679 7.560653 -111.250229 14.052336 19.518429 -20.610373 -16.057472 -9.012248 13.896267 38.593628 -4.058361 -2.582057 -18.860510 -1.848351 33.459469 -53.168198 -6.981989 1.445316 63.705883 2.744070 5.470243 20.962727 -13.549089 14.141239 
10.566048 46.247215 -1.189861 2.822266 -12.451171 83.583984 21.906429 -14.070478 -2.834655 -12.109374 6.484375 10.059696 53.368927 0.458842 -0.296587 -37.724609 -0.332031 15.126953 2.000000 -2.000000 0.000000 -19.775391 24.179689 1.927830 -53.172852 25.738342 -32.010197 14.059486 -31.167000 -12.844815 -2.000000 2.000000 0.000000 -17.207031 -2.412109 92.753494 -17.201614 4.202863 -102.545517 14.608174 18.875076 -22.025370 -17.342133 -8.652122 13.885942 31.513065 -2.778054 -1.865670 -11.425701 -0.391448 15.638947 -55.955925 -5.351552 2.118718 62.437042 7.266454 6.429106 22.900763 -15.687319 13.914304 
10.806698 47.828857 -1.802096 1.542969 -13.320312 77.519531 21.906429 -14.070478 -2.834655 -9.775391 11.943359 11.660157 51.597946 -1.808970 -0.467107 -37.255859 -1.396484 14.716799 2.000000 -2.000000 0.000000 -26.113281 25.019531 0.634766 -55.119884 25.813299 -23.862164 11.632163 -32.191856 -12.383053 -2.000000 2.000000 0.000000 -23.808594 3.095703 88.496620 -18.902534 0.030220 -95.657471 11.436602 15.979820 -25.513098 -13.641196 -7.958418 14.341334 22.994566 0.298702 -0.683232 -2.514464 -1.142195 9.511541 -54.629333 -3.691749 2.533634 61.911751 11.498432 7.337228 24.903776 -18.328918 15.389190 
10.952067 49.592644 -2.393320 3.417969 -14.316406 71.550323 21.906429 -14.070478 -2.834655 -7.822266 13.466797 12.346025 49.918579 -4.340334 -0.616551 -38.457035 -1.328125 15.214844 2.000000 -2.000000 0.000000 -28.535158 27.041016 1.191406 -57.003914 26.680698 -16.972372 11.642810 -32.904694 -12.818078 -2.000000 2.000000 0.000000 -29.365234 7.939454 85.489632 -23.150505 -5.278770 -91.001419 10.122229 17.118496 -26.741409 -12.441979 -6.717407 14.746095 18.237028 -1.191272 -0.711471 8.349979 -3.128434 2.249441 -55.153172 -3.466807 2.616132 62.827835 13.988797 8.009025 24.670254 -21.547771 12.769197 
11.119323 51.215916 -2.891770 7.724609 -13.603516 66.699219 21.906429 -14.070478 -2.834655 -5.644530 11.250001 12.169876 48.479500 -6.718512 -0.797384 -39.775391 -1.083984 15.712892 2.000000 -2.000000 0.000000 -27.695313 27.744139 3.227202 -57.709866 27.260159 -20.098661 8.613830 -32.580742 -11.187989 -2.000000 2.000000 0.000000 -31.582033 10.859375 83.457031 -29.871979 -12.339259 -95.346283 13.360126 15.387494 -27.383902 -13.174753 -5.634316 14.971169 21.209753 -4.120714 -1.536356 15.474773 -10.262262 -28.475515 -54.821529 -5.351502 2.050600 63.544022 14.834790 8.250224 26.172342 -20.463039 12.138554 
11.337190 52.198280 -3.315224 13.271484 -14.394533 62.253433 21.906429 -14.070478 -2.834655 -7.148437 8.857423 11.388224 47.851807 -9.262002 -0.959329 -39.951172 -0.722656 15.322268 2.000000 -2.000000 0.000000 -29.384766 26.328123 5.473082 -53.806637 28.099009 -22.422049 9.245253 -34.646141 -11.502627 -2.000000 2.000000 0.000000 -32.285156 13.886719 83.095703 -37.842453 -17.690495 -102.611336 15.512058 11.017653 -29.401529 -18.446995 -3.417624 15.160189 35.560223 -9.077052 -3.543234 12.968556 -14.588491 -26.452595 -56.527264 -7.753178 1.431252 63.507927 15.058022 8.261147 30.647369 -14.929219 11.033565 
